HIERARCHY
ROOT Hips
{
 OFFSET 0.000000 0.000000 0.000000
 CHANNELS 6 Xposition Yposition Zposition Yrotation Xrotation Zrotation
 JOINT Chest
 {
  OFFSET 0.000000 9.588913 -0.003946
  CHANNELS 3 Yrotation Xrotation Zrotation
  JOINT Chest2
  {
   OFFSET 0.000000 9.541882 0.008053
   CHANNELS 3 Yrotation Xrotation Zrotation
   JOINT Chest3
   {
    OFFSET 0.000000 9.501360 0.000000
    CHANNELS 3 Yrotation Xrotation Zrotation
    JOINT Chest4
    {
     OFFSET 0.000000 9.491660 0.000000
     CHANNELS 3 Yrotation Xrotation Zrotation
     JOINT Neck
     {
      OFFSET 0.000000 14.331917 0.000000
      CHANNELS 3 Yrotation Xrotation Zrotation
      JOINT Head
      {
       OFFSET 0.000000 8.884799 0.017034
       CHANNELS 3 Yrotation Xrotation Zrotation
       End Site
       {
        OFFSET 0.000000 16.896195 0.008993
       }
      }
     }
     JOINT RightCollar
     {
      OFFSET -2.923010 9.499495 0.000000
      CHANNELS 3 Yrotation Xrotation Zrotation
      JOINT RightShoulder
      {
       OFFSET -13.795216 0.000000 0.000000
       CHANNELS 3 Yrotation Xrotation Zrotation
       JOINT RightElbow
       {
        OFFSET -30.272209 0.000000 0.000000
        CHANNELS 3 Yrotation Xrotation Zrotation
        JOINT RightWrist
        {
         OFFSET -24.478199 0.000000 0.000000
         CHANNELS 3 Yrotation Xrotation Zrotation
         End Site
         {
          OFFSET -18.090752 0.000000 0.000000
         }
        }
       }
      }
     }
     JOINT LeftCollar
     {
      OFFSET 2.923010 9.499495 0.000000
      CHANNELS 3 Yrotation Xrotation Zrotation
      JOINT LeftShoulder
      {
       OFFSET 13.795216 0.000000 0.000000
       CHANNELS 3 Yrotation Xrotation Zrotation
       JOINT LeftElbow
       {
        OFFSET 30.272209 0.000000 0.000000
        CHANNELS 3 Yrotation Xrotation Zrotation
        JOINT LeftWrist
        {
         OFFSET 24.478199 0.000000 0.000000
         CHANNELS 3 Yrotation Xrotation Zrotation
         End Site
         {
          OFFSET 18.090752 0.000000 0.000000
         }
        }
       }
      }
     }
    }
   }
  }
 }
 JOINT RightHip
 {
  OFFSET -7.826875 0.019532 0.001973
  CHANNELS 3 Yrotation Xrotation Zrotation
  JOINT RightKnee
  {
   OFFSET 0.000000 -40.546152 -0.001885
   CHANNELS 3 Yrotation Xrotation Zrotation
   JOINT RightAnkle
   {
    OFFSET 0.000000 -39.417092 -0.003189
    CHANNELS 3 Yrotation Xrotation Zrotation
    JOINT RightToe
    {
     OFFSET 0.000000 -7.579396 17.243563
     CHANNELS 3 Yrotation Xrotation Zrotation
     End Site
     {
      OFFSET 0.000000 -1.500329 6.694466
     }
    }
   }
  }
 }
 JOINT LeftHip
 {
  OFFSET 7.826875 0.019532 0.001973
  CHANNELS 3 Yrotation Xrotation Zrotation
  JOINT LeftKnee
  {
   OFFSET 0.000000 -40.546152 -0.001885
   CHANNELS 3 Yrotation Xrotation Zrotation
   JOINT LeftAnkle
   {
    OFFSET 0.000000 -39.417092 -0.003189
    CHANNELS 3 Yrotation Xrotation Zrotation
    JOINT LeftToe
    {
     OFFSET 0.000000 -7.579396 17.243563
     CHANNELS 3 Yrotation Xrotation Zrotation
     End Site
     {
      OFFSET 0.000000 -1.500329 6.694466
     }
    }
   }
  }
 }
}
MOTION
Frames: 16
Frame Time: 0.008333
3.919267 34.511275 1.126346 48.429739 0.119896 0.766917 2.855885 9.621000 4.852932 1.320077 5.348543 2.226234 1.684503 6.677225 2.805163 1.320077 5.348543 2.226234 -8.109234 11.132945 -6.103866 -7.568981 -13.893355 -4.846159 16.238970 -1.165441 -5.182779 18.211787 -52.068409 48.898747 82.226942 -16.470084 5.592738 9.196944 -11.309226 -21.014678 -4.975396 -2.003749 -2.051146 12.707849 -5.475228 -76.901105 -73.300729 0.444370 -28.948191 8.403806 1.629769 -6.124415 54.084069 -81.499785 -77.545019 158.124960 31.533817 178.156602 10.394276 -33.608258 -5.523109 3.832190 -23.111392 -18.797680 90.244692 -80.344518 -85.578176 168.327669 25.846861 174.013988 -7.633881 -31.841860 -0.035971 -2.656376 -32.495986 8.091795
3.910029 34.517587 1.129835 48.426271 0.134990 0.776706 2.855666 9.617098 4.847090 1.319907 5.348165 2.222568 1.684234 6.676768 2.800571 1.319907 5.348165 2.222568 -8.089033 11.113489 -6.089072 -7.549366 -13.914890 -4.834037 16.246319 -1.173053 -5.179680 18.201496 -52.060903 48.915285 82.201166 -16.443964 5.589254 9.197242 -11.296430 -21.018550 -4.980889 -2.004464 -2.042210 12.711861 -5.472243 -76.901054 -73.299456 0.413936 -28.969430 8.387869 1.617118 -6.124816 54.163939 -81.526051 -77.623905 158.114303 31.545416 178.152891 10.371215 -33.581048 -5.551445 3.831022 -23.123586 -18.786314 90.348050 -80.346938 -85.669539 168.321580 25.855853 174.013929 -7.652043 -31.835979 -0.023791 -2.649584 -32.490345 8.076149
3.900737 34.525201 1.132605 48.424205 0.149877 0.787511 2.852760 9.613972 4.840173 1.319562 5.347958 2.218875 1.683747 6.676527 2.795945 1.319562 5.347958 2.218875 -8.066189 11.089747 -6.073875 -7.526936 -13.941115 -4.822112 16.256761 -1.176852 -5.177931 18.192455 -52.059742 48.929203 82.175110 -16.413436 5.586630 9.194095 -11.283065 -21.032495 -4.982995 -2.005306 -2.035827 12.715455 -5.469720 -76.897105 -73.300629 0.387170 -28.991424 8.373030 1.604050 -6.122934 54.242085 -81.549752 -77.706705 158.104755 31.559322 178.145175 10.367146 -33.548793 -5.590105 3.830645 -23.132240 -18.776807 90.446396 -80.350978 -85.757323 168.317755 25.867582 174.014675 -7.674622 -31.827496 -0.009108 -2.643783 -32.484237 8.062236
3.891135 34.534066 1.134663 48.424926 0.165746 0.797353 2.846018 9.608716 4.834512 1.318974 5.347326 2.215910 1.682964 6.675752 2.792222 1.318974 5.347326 2.215910 -8.041953 11.064964 -6.060414 -7.502569 -13.968470 -4.812479 16.267883 -1.176625 -5.178837 18.185586 -52.059846 48.942586 82.148592 -16.382099 5.581091 9.188360 -11.276906 -21.047743 -4.986223 -2.003550 -2.033168 12.721487 -5.467753 -76.892225 -73.301618 0.363449 -29.010099 8.356679 1.594732 -6.117989 54.310632 -81.570945 -77.784031 158.093614 31.575881 178.133564 10.375151 -33.516102 -5.632632 3.830667 -23.136653 -18.769809 90.546736 -80.357947 -85.852128 168.315992 25.882359 174.016725 -7.693043 -31.817362 -0.007985 -2.633538 -32.477812 8.053200
3.880947 34.544025 1.135818 48.424787 0.184827 0.805288 2.840178 9.599691 4.829769 1.318703 5.345825 2.213927 1.682585 6.673884 2.789730 1.318703 5.345825 2.213927 -8.018705 11.041323 -6.048549 -7.478976 -13.994552 -4.804431 16.277416 -1.173907 -5.181487 18.184803 -52.056328 48.954099 82.121967 -16.352611 5.566494 9.183188 -11.275514 -21.055616 -4.994552 -1.998653 -2.031275 12.728752 -5.465944 -76.889346 -73.302561 0.343812 -29.023826 8.341150 1.586369 -6.108419 54.362157 -81.589971 -77.837989 158.080100 31.595406 178.127523 10.360843 -33.496942 -5.651850 3.828428 -23.141191 -18.765130 90.664617 -80.367682 -85.966634 168.315060 25.899200 174.019125 -7.704447 -31.806782 -0.022554 -2.619293 -32.471239 8.048699
3.870194 34.554822 1.136660 48.421540 0.204973 0.808449 2.840980 9.591326 4.828093 1.318544 5.343141 2.212676 1.682350 6.670535 2.788149 1.318544 5.343141 2.212676 -7.996180 11.020347 -6.037019 -7.456055 -14.017719 -4.796558 16.286709 -1.169841 -5.183676 18.190565 -52.051465 48.960749 82.094375 -16.327340 5.547885 9.179479 -11.271264 -21.058820 -5.004559 -1.992086 -2.027365 12.731580 -5.463604 -76.889315 -73.306672 0.329947 -29.033051 8.329342 1.577400 -6.098434 54.368202 -81.607979 -77.837210 158.064320 31.617843 178.128662 10.321095 -33.493174 -5.647173 3.823947 -23.146331 -18.761853 90.784737 -80.381862 -86.083960 168.314384 25.915531 174.020293 -7.709437 -31.798933 -0.037459 -2.608692 -32.463235 8.041568
3.859153 34.566156 1.137511 48.419465 0.223907 0.806581 2.845653 9.586400 4.830422 1.317739 5.339623 2.212166 1.681310 6.666145 2.787482 1.317739 5.339623 2.212166 -7.972411 11.002572 -6.026170 -7.431425 -14.037419 -4.789655 16.294952 -1.166112 -5.187502 18.195118 -52.048406 48.970076 82.064295 -16.306223 5.532692 9.180836 -11.264622 -21.059317 -5.012838 -1.986650 -2.020827 12.728537 -5.460745 -76.893429 -73.312700 0.320265 -29.038914 8.322295 1.571883 -6.092377 54.321530 -81.626210 -77.784496 158.045391 31.642239 178.126913 10.286626 -33.495141 -5.647105 3.819232 -23.146001 -18.757836 90.892045 -80.398666 -86.193469 168.314493 25.931238 174.020806 -7.707731 -31.794704 -0.044508 -2.603508 -32.452337 8.027997
3.848049 34.577726 1.137901 48.417813 0.242828 0.803042 2.850576 9.582396 4.833700 1.317444 5.336047 2.211972 1.680914 6.661678 2.787218 1.317444 5.336047 2.211972 -7.947372 10.988388 -6.015717 -7.405100 -14.053230 -4.783397 16.301424 -1.163752 -5.194092 18.192654 -52.047145 48.984382 82.033744 -16.288649 5.520614 9.189809 -11.256908 -21.058009 -5.020675 -1.984100 -2.013380 12.718986 -5.458241 -76.897574 -73.316802 0.310438 -29.040206 8.318064 1.570266 -6.086520 54.254871 -81.643594 -77.714901 158.025942 31.667789 178.120878 10.270353 -33.499646 -5.661193 3.814437 -23.137429 -18.752198 90.990547 -80.412484 -86.295950 168.316774 25.948018 174.023434 -7.701589 -31.794310 -0.044952 -2.598641 -32.438320 8.010707
3.837051 34.589241 1.137533 48.414921 0.262575 0.800374 2.854187 9.577984 4.835631 1.318309 5.332745 2.211346 1.681965 6.657548 2.786432 1.318309 5.332745 2.211346 -7.922856 10.977805 -6.004747 -7.379359 -14.065123 -4.776366 16.308155 -1.162926 -5.199570 18.187704 -52.047238 48.994879 82.006956 -16.276044 5.512108 9.202071 -11.245609 -21.060022 -5.028588 -1.985025 -2.006237 12.703222 -5.456144 -76.897307 -73.318061 0.299346 -29.035569 8.313070 1.570639 -6.080825 54.197774 -81.657622 -77.656528 158.009572 31.693747 178.113694 10.274445 -33.506129 -5.686847 3.809824 -23.121036 -18.745927 91.075284 -80.421494 -86.383251 168.320860 25.966433 174.027723 -7.691666 -31.800257 -0.046028 -2.590878 -32.420679 7.993529
3.826492 34.600434 1.136132 48.413577 0.283111 0.801722 2.855894 9.573343 4.834836 1.319085 5.329076 2.209919 1.682890 6.652962 2.784639 1.319085 5.329076 2.209919 -7.900372 10.970265 -5.992949 -7.356041 -14.073686 -4.767902 16.313682 -1.162771 -5.200059 18.186310 -52.047867 48.998298 81.982314 -16.265672 5.508675 9.215225 -11.232690 -21.065441 -5.039372 -1.987965 -1.997930 12.692612 -5.450788 -76.895491 -73.322461 0.293244 -29.035648 8.307572 1.567628 -6.074262 54.156079 -81.667801 -77.616853 157.999110 31.718792 178.107098 10.291675 -33.518078 -5.716432 3.805067 -23.098206 -18.740201 91.139563 -80.424924 -86.451308 168.324522 25.986287 174.030328 -7.679962 -31.813624 -0.050272 -2.581689 -32.398560 7.977973
3.816865 34.611069 1.133398 48.414401 0.303821 0.810904 2.856390 9.567547 4.829330 1.319032 5.325198 2.207638 1.682765 6.648125 2.781766 1.319032 5.325198 2.207638 -7.880880 10.964841 -5.980527 -7.336253 -14.079910 -4.758054 16.316708 -1.162170 -5.197878 18.188985 -52.048216 48.997036 81.956416 -16.251009 5.507016 9.231215 -11.222159 -21.069762 -5.053892 -1.990360 -1.989432 12.689995 -5.442853 -76.892464 -73.332421 0.291791 -29.045499 8.302270 1.558839 -6.066397 54.137448 -81.672309 -77.601188 157.996720 31.741395 178.105850 10.302877 -33.541428 -5.733815 3.798924 -23.073206 -18.735539 91.184158 -80.419288 -86.501157 168.327042 26.007819 174.032280 -7.674442 -31.831744 -0.051052 -2.571963 -32.372561 7.964781
3.808156 34.620921 1.129984 48.414233 0.322607 0.825301 2.856242 9.562336 4.821738 1.318025 5.321893 2.204644 1.681438 6.644012 2.777988 1.318025 5.321893 2.204644 -7.863304 10.960390 -5.968609 -7.318550 -14.085049 -4.748355 16.322093 -1.161190 -5.197015 18.191743 -52.049061 48.993036 81.931643 -16.230548 5.504029 9.246772 -11.212442 -21.068357 -5.068045 -1.991051 -1.982853 12.685024 -5.438757 -76.886427 -73.339017 0.287106 -29.054244 8.293342 1.551373 -6.065135 54.145240 -81.671820 -77.610820 157.999216 31.761308 178.106448 10.315336 -33.568319 -5.746616 3.792732 -23.046463 -18.731974 91.214766 -80.407847 -86.536046 168.327839 26.029128 174.034619 -7.677470 -31.850370 -0.044681 -2.563272 -32.345724 7.952499
3.799685 34.629804 1.126338 48.410971 0.341079 0.840430 2.856734 9.558352 4.815236 1.316799 5.318794 2.201362 1.679835 6.640159 2.773850 1.316799 5.318794 2.201362 -7.847262 10.956250 -5.957711 -7.302404 -14.089819 -4.739483 16.331809 -1.160642 -5.196363 18.192650 -52.049353 48.986275 81.911668 -16.210195 5.502391 9.258436 -11.201718 -21.065307 -5.080811 -1.990875 -1.977011 12.675651 -5.439485 -76.880829 -73.338549 0.279636 -29.060866 8.280673 1.546930 -6.070536 54.181647 -81.670167 -77.647509 158.004937 31.779524 178.106804 10.338527 -33.593475 -5.761462 3.787116 -23.016787 -18.730997 91.257985 -80.397232 -86.581747 168.327751 26.048383 174.035938 -7.682611 -31.867182 -0.036269 -2.555883 -32.320057 7.939277
3.791234 34.637583 1.122329 48.410080 0.360939 0.856121 2.857030 9.553290 4.807975 1.315604 5.315687 2.198181 1.678272 6.636295 2.769837 1.315604 5.315687 2.198181 -7.834704 10.952570 -5.946032 -7.290453 -14.094047 -4.728981 16.339539 -1.161838 -5.193612 18.194201 -52.047721 48.977116 81.896101 -16.199921 5.508294 9.270250 -11.194170 -21.067614 -5.091283 -1.989733 -1.969813 12.661338 -5.443328 -76.877125 -73.336041 0.271037 -29.069556 8.270599 1.539651 -6.075185 54.236661 -81.666532 -77.706110 158.012795 31.795700 178.109639 10.365056 -33.621313 -5.771620 3.781261 -22.986095 -18.733534 91.328484 -80.387686 -86.656783 168.327954 26.066268 174.035034 -7.684189 -31.881042 -0.032249 -2.547144 -32.295578 7.925729
3.783125 34.644162 1.118353 48.414607 0.379357 0.871819 2.855511 9.548007 4.798812 1.314573 5.313364 2.195344 1.676926 6.633408 2.766260 1.314573 5.313364 2.195344 -7.826254 10.949327 -5.932758 -7.283591 -14.097753 -4.715793 16.341175 -1.166058 -5.190480 18.199938 -52.047792 48.966022 81.879828 -16.203064 5.520863 9.283235 -11.192476 -21.069427 -5.099552 -1.989338 -1.960311 12.640228 -5.449111 -76.872519 -73.333295 0.257044 -29.077855 8.264331 1.531380 -6.078155 54.293639 -81.660316 -77.775091 158.019221 31.808981 178.109968 10.402413 -33.646922 -5.787136 3.776508 -22.954156 -18.738710 91.413252 -80.378318 -86.749609 168.327103 26.082724 174.032269 -7.683913 -31.889885 -0.030893 -2.537671 -32.273370 7.912400
3.775633 34.649479 1.114617 48.418473 0.394582 0.887490 2.854457 9.543716 4.788539 1.315011 5.312608 2.192914 1.677434 6.632470 2.763223 1.315011 5.312608 2.192914 -7.820934 10.945275 -5.920060 -7.280272 -14.102290 -4.702615 16.340759 -1.173054 -5.191105 18.210590 -52.050007 48.952615 81.861161 -16.210593 5.527138 9.293294 -11.192103 -21.063696 -5.109987 -1.994231 -1.951069 12.617201 -5.455060 -76.864664 -73.329773 0.238682 -29.085508 8.256652 1.526798 -6.083305 54.357065 -81.651527 -77.851241 158.026266 31.819466 178.109968 10.445382 -33.669622 -5.803484 3.772787 -22.922650 -18.746093 91.499454 -80.369435 -86.842365 168.326131 26.097204 174.029960 -7.684492 -31.893652 -0.031445 -2.528468 -32.254939 7.901242
